<?xml version="1.0" encoding="UTF-8" standalone="no"?> <svg width="512" height="512" viewBox="0 0 512 512" fill="none" xmlns="http://www.w3.org/2000/svg">
<path fill-rule="evenodd" clip-rule="evenodd" d="M175.746 168.08C155.645 167.223 135.857 173.281 119.68 185.243C103.503 197.204 91.913 214.348 86.8416 233.818C81.7702 253.288 83.5235 273.908 91.8093 292.241C100.095 310.575 114.413 325.517 132.378 334.575C150.342 343.634 170.869 346.264 190.537 342.026C210.205 337.788 227.827 326.938 240.466 311.285C247.082 303.091 252.124 293.841 255.427 284H176.938V228H288H316V256C316 288.923 304.719 320.851 284.036 346.466C263.352 372.08 234.517 389.834 202.333 396.769C170.149 403.704 136.56 399.401 107.164 384.578C77.7671 369.754 54.3375 345.305 40.7788 315.304C27.2202 285.303 24.3512 251.562 32.6499 219.702C40.9486 187.843 59.9138 159.789 86.3856 140.215C112.857 120.641 145.237 110.729 178.13 112.131C211.023 113.532 242.442 126.162 267.153 147.917L230.149 189.949C215.048 176.655 195.847 168.936 175.746 168.08ZM396 228V180H436V228H484V268H436V316H396V268H348V228H396Z" fill="black"/>
</svg>
